Disc Label:     The Flight Before Christmas
Disc Size:      25,012,026,766 bytes
Protection:     AACS
Extras:         50Hz Content
BDInfo:         0.7.5.3

Notes:          

BDINFO HOME:
  Cinema Squid (old)
    http://www.cinemasquid.com/blu-ray/tools/bdinfo
  UniqProject GitHub (new)
   https://github.com/UniqProject/BDInfo

INCLUDES FORUMS REPORT FOR:
  AVS Forum Blu-ray Audio and Video Specifications Thread
    http://www.avsforum.com/avs-vb/showthread.php?t=1155731


********************
PLAYLIST: 00003.MPLS
********************

<--- BEGIN FORUMS PASTE --->
[code]
                                                                                                                Total   Video                                             
Title                                                           Codec   Length  Movie Size      Disc Size       Bitrate Bitrate Main Audio Track                          Secondary Audio Track
-----                                                           ------  ------- --------------  --------------  ------- ------- ------------------                        ---------------------
00003.MPLS                                                      AVC     1:20:44 0               25,012,026,766  0.00    0.00    LPCM 5.1 4608Kbps (48kHz/16-bit)          DTS-HD Hi-Res 7.1 2046Kbps (48kHz/16-bit)
[/code]

[code]

DISC INFO:

Disc Label:     The Flight Before Christmas
Disc Size:      25,012,026,766 bytes
Protection:     AACS
Extras:         50Hz Content
BDInfo:         0.7.5.3

PLAYLIST REPORT:

Name:                   00003.MPLS
Length:                 1:20:44.840 (h:m:s.ms)
Size:                   0 bytes
Total Bitrate:          0.00 Mbps

VIDEO:

Codec                   Bitrate             Description     
-----                   -------             -----------     
MPEG-4 AVC Video        0 kbps              1080p / 23.976 fps / 16:9 / High Profile 4.1

AUDIO:

Codec                           Language        Bitrate         Description     
-----                           --------        -------         -----------     
LPCM Audio                      Russian         4608 kbps       5.1 / 48 kHz /  4608 kbps / 16-bit
DTS-HD High-Res Audio           Russian         2046 kbps       7.1 / 48 kHz /  2046 kbps / 16-bit (DTS Core: 5.1 / 48 kHz /  1509 kbps / 16-bit)
Dolby TrueHD Audio              English         0 kbps          5.1 / 48 kHz / 16-bit (AC3 Embedded: 5.1 / 48 kHz /   448 kbps)

SUBTITLES:

Codec                           Language        Bitrate         Description     
-----                           --------        -------         -----------     
Presentation Graphics           Russian         0.000 kbps                      
Presentation Graphics           Ukrainian       0.000 kbps                      

FILES:

Name            Time In         Length          Size            Total Bitrate   
----            -------         ------          ----            -------------   
00003.M2TS      0:00:00.000     1:20:44.840     0               0               

CHAPTERS:

Number          Time In         Length          Avg Video Rate  Max 1-Sec Rate  Max 1-Sec Time  Max 5-Sec Rate  Max 5-Sec Time  Max 10Sec Rate  Max 10Sec Time  Avg Frame Size  Max Frame Size  Max Frame Time  
------          -------         ------          --------------  --------------  --------------  --------------  --------------  --------------  --------------  --------------  --------------  --------------  
1               0:00:00.000     0:05:30.163     0 kbps          0 kbps          00:00:00.000    0 kbps          00:00:00.000    0 kbps          00:00:00.000    0 bytes         0 bytes         00:00:00.000    
2               0:05:30.163     0:05:48.723     0 kbps          0 kbps          00:00:00.000    0 kbps          00:00:00.000    0 kbps          00:00:00.000    0 bytes         0 bytes         00:00:00.000    
3               0:11:18.886     0:07:02.755     0 kbps          0 kbps          00:00:00.000    0 kbps          00:00:00.000    0 kbps          00:00:00.000    0 bytes         0 bytes         00:00:00.000    
4               0:18:21.642     0:06:39.482     0 kbps          0 kbps          00:00:00.000    0 kbps          00:00:00.000    0 kbps          00:00:00.000    0 bytes         0 bytes         00:00:00.000    
5               0:25:01.124     0:05:51.059     0 kbps          0 kbps          00:00:00.000    0 kbps          00:00:00.000    0 kbps          00:00:00.000    0 bytes         0 bytes         00:00:00.000    
6               0:30:52.183     0:08:35.514     0 kbps          0 kbps          00:00:00.000    0 kbps          00:00:00.000    0 kbps          00:00:00.000    0 bytes         0 bytes         00:00:00.000    
7               0:39:27.698     0:07:49.510     0 kbps          0 kbps          00:00:00.000    0 kbps          00:00:00.000    0 kbps          00:00:00.000    0 bytes         0 bytes         00:00:00.000    
8               0:47:17.209     0:08:21.876     0 kbps          0 kbps          00:00:00.000    0 kbps          00:00:00.000    0 kbps          00:00:00.000    0 bytes         0 bytes         00:00:00.000    
9               0:55:39.085     0:06:51.911     0 kbps          0 kbps          00:00:00.000    0 kbps          00:00:00.000    0 kbps          00:00:00.000    0 bytes         0 bytes         00:00:00.000    
10              1:02:30.997     0:05:04.137     0 kbps          0 kbps          00:00:00.000    0 kbps          00:00:00.000    0 kbps          00:00:00.000    0 bytes         0 bytes         00:00:00.000    
11              1:07:35.134     0:08:08.112     0 kbps          0 kbps          00:00:00.000    0 kbps          00:00:00.000    0 kbps          00:00:00.000    0 bytes         0 bytes         00:00:00.000    
12              1:15:43.247     0:05:01.592     0 kbps          0 kbps          00:00:00.000    0 kbps          00:00:00.000    0 kbps          00:00:00.000    0 bytes         0 bytes         00:00:00.000    

STREAM DIAGNOSTICS:

File            PID             Type            Codec           Language                Seconds                 Bitrate                 Bytes           Packets         
----            ---             ----            -----           --------                --------------          --------------          -------------   -----           
00003.M2TS      4113 (0x1011)   0x1B            AVC                                     0                       0                       0               0               
00003.M2TS      4352 (0x1100)   0x80            LPCM            rus (Russian)           0                       0                       0               0               
00003.M2TS      4353 (0x1101)   0x85            DTS-HD HR       rus (Russian)           0                       0                       0               0               
00003.M2TS      4354 (0x1102)   0x83            TrueHD          eng (English)           0                       0                       0               0               
00003.M2TS      4608 (0x1200)   0x90            PGS             rus (Russian)           0                       0                       0               0               
00003.M2TS      4609 (0x1201)   0x90            PGS             ukr (Ukrainian)         0                       0                       0               0               

[/code]
<---- END FORUMS PASTE ---->

QUICK SUMMARY:

Disc Label: The Flight Before Christmas
Disc Size: 25,012,026,766 bytes
Protection: AACS
Playlist: 00003.MPLS
Size: 0 bytes
Length: 1:20:44.840
Total Bitrate: 0.00 Mbps
Video: MPEG-4 AVC Video / 0 kbps / 1080p / 23.976 fps / 16:9 / High Profile 4.1
Audio: Russian / LPCM Audio / 5.1 / 48 kHz /  4608 kbps / 16-bit
Audio: Russian / DTS-HD High-Res Audio / 7.1 / 48 kHz /  2046 kbps / 16-bit (DTS Core: 5.1 / 48 kHz /  1509 kbps / 16-bit)
Audio: English / Dolby TrueHD Audio / 5.1 / 48 kHz / 16-bit (AC3 Embedded: 5.1 / 48 kHz /   448 kbps)
Subtitle: Russian / 0.000 kbps
Subtitle: Ukrainian / 0.000 kbps


********************
PLAYLIST: 00004.MPLS
********************

<--- BEGIN FORUMS PASTE --->
[code]
                                                                                                                Total   Video                                             
Title                                                           Codec   Length  Movie Size      Disc Size       Bitrate Bitrate Main Audio Track                          Secondary Audio Track
-----                                                           ------  ------- --------------  --------------  ------- ------- ------------------                        ---------------------
00004.MPLS                                                      AVC     0:08:26 0               25,012,026,766  0.00    0.00    DD AC3 2.0 192Kbps                        
[/code]

[code]

DISC INFO:

Disc Label:     The Flight Before Christmas
Disc Size:      25,012,026,766 bytes
Protection:     AACS
Extras:         50Hz Content
BDInfo:         0.7.5.3

PLAYLIST REPORT:

Name:                   00004.MPLS
Length:                 0:08:26.520 (h:m:s.ms)
Size:                   0 bytes
Total Bitrate:          0.00 Mbps

VIDEO:

Codec                   Bitrate             Description     
-----                   -------             -----------     
MPEG-4 AVC Video        0 kbps              576i / 25 fps / 16:9 / High Profile 4.1

AUDIO:

Codec                           Language        Bitrate         Description     
-----                           --------        -------         -----------     
Dolby Digital Audio             Russian         192 kbps        2.0 / 48 kHz /   192 kbps / DN -4dB
Dolby Digital Audio             Russian         192 kbps        2.0 / 48 kHz /   192 kbps / DN -4dB
Dolby Digital Audio             Russian         192 kbps        2.0 / 48 kHz /   192 kbps / DN -4dB

FILES:

Name            Time In         Length          Size            Total Bitrate   
----            -------         ------          ----            -------------   
00004.M2TS      0:00:00.000     0:08:26.520     0               0               

CHAPTERS:

Number          Time In         Length          Avg Video Rate  Max 1-Sec Rate  Max 1-Sec Time  Max 5-Sec Rate  Max 5-Sec Time  Max 10Sec Rate  Max 10Sec Time  Avg Frame Size  Max Frame Size  Max Frame Time  
------          -------         ------          --------------  --------------  --------------  --------------  --------------  --------------  --------------  --------------  --------------  --------------  
1               0:00:00.000     0:08:26.520     0 kbps          0 kbps          00:00:00.000    0 kbps          00:00:00.000    0 kbps          00:00:00.000    0 bytes         0 bytes         00:00:00.000    

STREAM DIAGNOSTICS:

File            PID             Type            Codec           Language                Seconds                 Bitrate                 Bytes           Packets         
----            ---             ----            -----           --------                --------------          --------------          -------------   -----           
00004.M2TS      4113 (0x1011)   0x1B            AVC                                     0                       0                       0               0               
00004.M2TS      4352 (0x1100)   0x81            AC3             rus (Russian)           0                       0                       0               0               
00004.M2TS      4353 (0x1101)   0x81            AC3             rus (Russian)           0                       0                       0               0               
00004.M2TS      4354 (0x1102)   0x81            AC3             rus (Russian)           0                       0                       0               0               

[/code]
<---- END FORUMS PASTE ---->

QUICK SUMMARY:

Disc Label: The Flight Before Christmas
Disc Size: 25,012,026,766 bytes
Protection: AACS
Playlist: 00004.MPLS
Size: 0 bytes
Length: 0:08:26.520
Total Bitrate: 0.00 Mbps
Video: MPEG-4 AVC Video / 0 kbps / 576i / 25 fps / 16:9 / High Profile 4.1
Audio: Russian / Dolby Digital Audio / 2.0 / 48 kHz /   192 kbps / DN -4dB
Audio: Russian / Dolby Digital Audio / 2.0 / 48 kHz /   192 kbps / DN -4dB
Audio: Russian / Dolby Digital Audio / 2.0 / 48 kHz /   192 kbps / DN -4dB


********************
PLAYLIST: 00002.MPLS
********************

<--- BEGIN FORUMS PASTE --->
[code]
                                                                                                                Total   Video                                             
Title                                                           Codec   Length  Movie Size      Disc Size       Bitrate Bitrate Main Audio Track                          Secondary Audio Track
-----                                                           ------  ------- --------------  --------------  ------- ------- ------------------                        ---------------------
00002.MPLS                                                      AVC     0:06:38 0               25,012,026,766  0.00    0.00    DD AC3 2.0 192Kbps                        
[/code]

[code]

DISC INFO:

Disc Label:     The Flight Before Christmas
Disc Size:      25,012,026,766 bytes
Protection:     AACS
Extras:         50Hz Content
BDInfo:         0.7.5.3

PLAYLIST REPORT:

Name:                   00002.MPLS
Length:                 0:06:38.360 (h:m:s.ms)
Size:                   0 bytes
Total Bitrate:          0.00 Mbps

VIDEO:

Codec                   Bitrate             Description     
-----                   -------             -----------     
MPEG-4 AVC Video        0 kbps              576i / 25 fps / 4:3 / High Profile 4.1

AUDIO:

Codec                           Language        Bitrate         Description     
-----                           --------        -------         -----------     
Dolby Digital Audio             Russian         192 kbps        2.0 / 48 kHz /   192 kbps / DN -4dB
Dolby Digital Audio             Russian         192 kbps        2.0 / 48 kHz /   192 kbps / DN -4dB
Dolby Digital Audio             Russian         192 kbps        2.0 / 48 kHz /   192 kbps / DN -4dB

FILES:

Name            Time In         Length          Size            Total Bitrate   
----            -------         ------          ----            -------------   
00002.M2TS      0:00:00.000     0:06:38.360     0               0               

CHAPTERS:

Number          Time In         Length          Avg Video Rate  Max 1-Sec Rate  Max 1-Sec Time  Max 5-Sec Rate  Max 5-Sec Time  Max 10Sec Rate  Max 10Sec Time  Avg Frame Size  Max Frame Size  Max Frame Time  
------          -------         ------          --------------  --------------  --------------  --------------  --------------  --------------  --------------  --------------  --------------  --------------  
1               0:00:00.000     0:06:38.360     0 kbps          0 kbps          00:00:00.000    0 kbps          00:00:00.000    0 kbps          00:00:00.000    0 bytes         0 bytes         00:00:00.000    

STREAM DIAGNOSTICS:

File            PID             Type            Codec           Language                Seconds                 Bitrate                 Bytes           Packets         
----            ---             ----            -----           --------                --------------          --------------          -------------   -----           
00002.M2TS      4113 (0x1011)   0x1B            AVC                                     0                       0                       0               0               
00002.M2TS      4352 (0x1100)   0x81            AC3             rus (Russian)           0                       0                       0               0               
00002.M2TS      4353 (0x1101)   0x81            AC3             rus (Russian)           0                       0                       0               0               
00002.M2TS      4354 (0x1102)   0x81            AC3             rus (Russian)           0                       0                       0               0               

[/code]
<---- END FORUMS PASTE ---->

QUICK SUMMARY:

Disc Label: The Flight Before Christmas
Disc Size: 25,012,026,766 bytes
Protection: AACS
Playlist: 00002.MPLS
Size: 0 bytes
Length: 0:06:38.360
Total Bitrate: 0.00 Mbps
Video: MPEG-4 AVC Video / 0 kbps / 576i / 25 fps / 4:3 / High Profile 4.1
Audio: Russian / Dolby Digital Audio / 2.0 / 48 kHz /   192 kbps / DN -4dB
Audio: Russian / Dolby Digital Audio / 2.0 / 48 kHz /   192 kbps / DN -4dB
Audio: Russian / Dolby Digital Audio / 2.0 / 48 kHz /   192 kbps / DN -4dB


********************
PLAYLIST: 00000.MPLS
********************

<--- BEGIN FORUMS PASTE --->
[code]
                                                                                                                Total   Video                                             
Title                                                           Codec   Length  Movie Size      Disc Size       Bitrate Bitrate Main Audio Track                          Secondary Audio Track
-----                                                           ------  ------- --------------  --------------  ------- ------- ------------------                        ---------------------
00000.MPLS                                                      AVC     0:00:26 0               25,012,026,766  0.00    0.00    DTS-HD Master 7.1 (48kHz/16-bit)          
[/code]

[code]

DISC INFO:

Disc Label:     The Flight Before Christmas
Disc Size:      25,012,026,766 bytes
Protection:     AACS
Extras:         50Hz Content
BDInfo:         0.7.5.3

PLAYLIST REPORT:

Name:                   00000.MPLS
Length:                 0:00:26.401 (h:m:s.ms)
Size:                   0 bytes
Total Bitrate:          0.00 Mbps

VIDEO:

Codec                   Bitrate             Description     
-----                   -------             -----------     
MPEG-4 AVC Video        0 kbps              1080p / 23.976 fps / 16:9 / High Profile 4.1

AUDIO:

Codec                           Language        Bitrate         Description     
-----                           --------        -------         -----------     
DTS-HD Master Audio             Russian         0 kbps          7.1 / 48 kHz / 16-bit (DTS Core: 5.1 / 48 kHz /  1509 kbps / 16-bit)

FILES:

Name            Time In         Length          Size            Total Bitrate   
----            -------         ------          ----            -------------   
00000.M2TS      0:00:00.000     0:00:12.011     0               0               
00008.M2TS      0:00:12.011     0:00:14.389     0               0               

CHAPTERS:

Number          Time In         Length          Avg Video Rate  Max 1-Sec Rate  Max 1-Sec Time  Max 5-Sec Rate  Max 5-Sec Time  Max 10Sec Rate  Max 10Sec Time  Avg Frame Size  Max Frame Size  Max Frame Time  
------          -------         ------          --------------  --------------  --------------  --------------  --------------  --------------  --------------  --------------  --------------  --------------  
1               0:00:00.000     0:00:26.401     0 kbps          0 kbps          00:00:00.000    0 kbps          00:00:00.000    0 kbps          00:00:00.000    0 bytes         0 bytes         00:00:00.000    

STREAM DIAGNOSTICS:

File            PID             Type            Codec           Language                Seconds                 Bitrate                 Bytes           Packets         
----            ---             ----            -----           --------                --------------          --------------          -------------   -----           
00000.M2TS      4113 (0x1011)   0x1B            AVC                                     0                       0                       0               0               
00008.M2TS      4113 (0x1011)   0x1B            AVC                                     0                       0                       0               0               
00008.M2TS      4352 (0x1100)   0x86            DTS-HD MA       rus (Russian)           0                       0                       0               0               

[/code]
<---- END FORUMS PASTE ---->

QUICK SUMMARY:

Disc Label: The Flight Before Christmas
Disc Size: 25,012,026,766 bytes
Protection: AACS
Playlist: 00000.MPLS
Size: 0 bytes
Length: 0:00:26.401
Total Bitrate: 0.00 Mbps
Video: MPEG-4 AVC Video / 0 kbps / 1080p / 23.976 fps / 16:9 / High Profile 4.1
Audio: Russian / DTS-HD Master Audio / 7.1 / 48 kHz / 16-bit (DTS Core: 5.1 / 48 kHz /  1509 kbps / 16-bit)

